<?xml version="1.0" encoding="UTF-8"?>
<!DOCTYPE svg PUBLIC "-//W3C//DTD SVG 1.1//EN" "http://www.w3.org/Graphics/SVG/1.1/DTD/svg11.dtd">
<!-- Creator: CorelDRAW X7 -->
<svg xmlns="http://www.w3.org/2000/svg" xml:space="preserve" width="184.856mm" height="184.856mm" version="1.1" style="shape-rendering:geometricPrecision; text-rendering:geometricPrecision; image-rendering:optimizeQuality; fill-rule:evenodd; clip-rule:evenodd"
viewBox="0 0 18486 18486"
 xmlns:xlink="http://www.w3.org/1999/xlink">
 <defs>
  <style type="text/css">
   <![CDATA[
    .fil0 {fill:none}
    .fil1 {fill:#332C2B}
    .fil2 {fill:#EFB222}
   ]]>
  </style>
 </defs>
 <g id="Layer_x0020_1">
  <metadata id="CorelCorpID_0Corel-Layer"/>
  <rect class="fil0" width="18486" height="18486"/>
  <g id="_2991639252416">
   <path class="fil1" d="M12834 12619l-1 2c-17,6 -53,-173 -57,-185l-54 -191c-7,-46 -11,-53 -25,-95 -12,-35 -9,-63 -25,-100l-51 -194c-7,-34 -22,-50 -29,-91 -11,-68 -78,-178 -142,-228 -112,-86 -247,-63 -348,28 -54,47 -74,74 -112,133 -19,31 -67,140 -72,173 -7,42 -19,57 -28,93 -10,42 -6,55 -24,100 -14,34 -11,64 -22,98 -14,42 -18,54 -26,99 -6,35 -22,58 -27,93 -8,47 -12,55 -26,98 -11,34 -8,63 -22,99 -17,43 -14,61 -24,101 -10,37 -20,49 -27,93 -6,41 -21,62 -28,97l-49 200c-29,7 -102,-292 -110,-323 -25,-112 -65,-225 -93,-337 -25,-101 -58,-239 -94,-335 -41,-107 -87,-229 -231,-189 -83,24 -192,122 -236,195 -62,104 -42,239 -6,348l318 972c30,89 67,236 119,310 150,215 401,197 548,-7 66,-91 101,-197 126,-305 25,-112 65,-229 89,-341 21,-104 56,-240 87,-342 32,-106 60,-234 87,-343 18,-9 104,327 112,357 30,123 67,244 100,366 71,261 121,540 464,354 189,-102 263,-421 320,-614 105,-360 218,-719 321,-1078 34,-118 79,-243 108,-360 26,-107 59,-288 -78,-337 -115,-42 -248,44 -313,134 -71,100 -96,225 -123,343 -29,122 -66,248 -98,369 -64,245 -138,496 -198,740zm-3591 -10801c4101,0 7425,3324 7425,7425 0,4101 -3324,7425 -7425,7425 -4101,0 -7425,-3324 -7425,-7425 0,-4101 3324,-7425 7425,-7425zm7706 7425c0,-4256 -3450,-7707 -7706,-7707 -4256,0 -7707,3451 -7707,7707 0,4256 3451,7706 7707,7706 4256,0 7706,-3450 7706,-7706zm-11268 2550c144,-11 264,56 359,161 77,85 153,237 176,351 21,104 30,377 -6,474 -56,154 -91,230 -263,264 -69,14 -151,-16 -212,-44 -63,-29 -103,-66 -151,-113 -55,-54 -71,-93 -107,-157 -39,-69 -45,-125 -67,-196 -31,-100 -22,-261 -16,-370 2,-43 17,-65 26,-104 14,-63 42,-128 85,-178 50,-57 103,-83 176,-88zm3704 729c54,-7 93,-6 148,1 21,3 93,35 109,48 83,70 92,79 138,177 26,54 20,69 39,118 9,26 34,108 -7,117 -23,5 -558,0 -631,0 -190,0 -143,8 -112,-148 14,-71 58,-153 106,-208 65,-74 127,-94 210,-105zm-2072 -540c-122,20 -198,128 -222,241 -23,111 -11,330 -11,451 0,309 3,619 0,927 -1,130 -8,270 100,363 95,82 251,83 348,3 117,-96 105,-221 105,-357 0,-153 -4,-312 1,-465 3,-119 15,-302 47,-415 34,-121 68,-223 205,-257 134,-33 256,64 397,53 140,-12 207,-143 188,-272 -19,-120 -132,-189 -237,-228 -136,-51 -257,-51 -395,-6 -183,61 -207,226 -245,143 -30,-62 -37,-95 -97,-138 -64,-45 -106,-56 -184,-43zm-196 -7449c485,0 879,972 879,2172 0,1199 -394,2172 -879,2172 -485,0 -879,-973 -879,-2172 0,-1200 394,-2172 879,-2172zm4169 0c485,0 879,972 879,2172 0,1199 -394,2172 -879,2172 -485,0 -879,-973 -879,-2172 0,-1200 394,-2172 879,-2172zm-1915 7546c-401,30 -696,248 -826,628 -126,373 -109,848 112,1183 346,524 1159,501 1524,151 118,-113 250,-353 104,-493 -72,-69 -192,-62 -267,-1 -65,52 -124,122 -187,179 -241,216 -564,200 -714,-71 -29,-53 -99,-227 -73,-279 23,-46 108,-32 150,-29 62,4 124,0 186,0 123,1 245,0 368,1 174,0 484,35 587,-142 93,-160 30,-439 -41,-600 -165,-375 -517,-558 -923,-527zm-2932 -1264c-199,35 -151,377 -156,523 -2,54 -3,108 -3,162 -1,56 8,123 1,177 -13,102 -110,-54 -146,-89 -402,-388 -1082,-498 -1261,174 -46,173 -50,452 -23,629 52,337 209,667 481,883 133,106 309,188 480,202 396,32 410,-240 463,-22 37,153 234,327 394,248 92,-45 106,-144 108,-236 14,-557 29,-1121 24,-1678 -1,-137 17,-561 2,-661 -24,-170 -180,-345 -364,-312z"/>
   <path class="fil2" d="M11286 8877c-485,0 -879,-973 -879,-2172 0,-1200 394,-2172 879,-2172 485,0 879,972 879,2172 0,1199 -394,2172 -879,2172zm-2111 3750c-48,55 -92,137 -106,208 -31,156 -78,148 112,148 73,0 608,5 631,0 41,-9 16,-91 7,-117 -19,-49 -13,-64 -39,-118 -46,-98 -55,-107 -138,-177 -16,-13 -88,-45 -109,-48 -55,-7 -94,-8 -148,-1 -83,11 -145,31 -210,105zm-2959 -322c-23,-114 -99,-266 -176,-351 -95,-105 -215,-172 -359,-161 -73,5 -126,31 -176,88 -43,50 -71,115 -85,178 -9,39 -24,61 -26,104 -6,109 -15,270 16,370 22,71 28,127 67,196 36,64 52,103 107,157 48,47 88,84 151,113 61,28 143,58 212,44 172,-34 207,-110 263,-264 36,-97 27,-370 6,-474zm10452 -3062c0,-4101 -3324,-7425 -7425,-7425 -4101,0 -7425,3324 -7425,7425 0,4101 3324,7425 7425,7425 4101,0 7425,-3324 7425,-7425zm-4778 2721c9,-36 21,-51 28,-93 5,-33 53,-142 72,-173 38,-59 58,-86 112,-133 101,-91 236,-114 348,-28 64,50 131,160 142,228 7,41 22,57 29,91l51 194c16,37 13,65 25,100 14,42 18,49 25,95l54 191c4,12 40,191 57,185l1 -2c60,-244 134,-495 198,-740 32,-121 69,-247 98,-369 27,-118 52,-243 123,-343 65,-90 198,-176 313,-134 137,49 104,230 78,337 -29,117 -74,242 -108,360 -103,359 -216,718 -321,1078 -57,193 -131,512 -320,614 -343,186 -393,-93 -464,-354 -33,-122 -70,-243 -100,-366 -8,-30 -94,-366 -112,-357 -27,109 -55,237 -87,343 -31,102 -66,238 -87,342 -24,112 -64,229 -89,341 -25,108 -60,214 -126,305 -147,204 -398,222 -548,7 -52,-74 -89,-221 -119,-310l-318 -972c-36,-109 -56,-244 6,-348 44,-73 153,-171 236,-195 144,-40 190,82 231,189 36,96 69,234 94,335 28,112 68,225 93,337 8,31 81,330 110,323l49 -200c7,-35 22,-56 28,-97 7,-44 17,-56 27,-93 10,-40 7,-58 24,-101 14,-36 11,-65 22,-99 14,-43 18,-51 26,-98 5,-35 21,-58 27,-93 8,-45 12,-57 26,-99 11,-34 8,-64 22,-98 18,-45 14,-58 24,-100zm-5451 -1149c184,-33 340,142 364,312 15,100 -3,524 -2,661 5,557 -10,1121 -24,1678 -2,92 -16,191 -108,236 -160,79 -357,-95 -394,-248 -53,-218 -67,54 -463,22 -171,-14 -347,-96 -480,-202 -272,-216 -429,-546 -481,-883 -27,-177 -23,-456 23,-629 179,-672 859,-562 1261,-174 36,35 133,191 146,89 7,-54 -2,-121 -1,-177 0,-54 1,-108 3,-162 5,-146 -43,-488 156,-523zm2106 1892c130,-380 425,-598 826,-628 406,-31 758,152 923,527 71,161 134,440 41,600 -103,177 -413,142 -587,142 -123,-1 -245,0 -368,-1 -62,0 -124,4 -186,0 -42,-3 -127,-17 -150,29 -26,52 44,226 73,279 150,271 473,287 714,71 63,-57 122,-127 187,-179 75,-61 195,-68 267,1 146,140 14,380 -104,493 -365,350 -1178,373 -1524,-151 -221,-335 -238,-810 -112,-1183zm-1454 -484c24,-113 100,-221 222,-241 78,-13 120,-2 184,43 60,43 67,76 97,138 38,83 62,-82 245,-143 138,-45 259,-45 395,6 105,39 218,108 237,228 19,129 -48,260 -188,272 -141,11 -263,-86 -397,-53 -137,34 -171,136 -205,257 -32,113 -44,296 -47,415 -5,153 -1,312 -1,465 0,136 12,261 -105,357 -97,80 -253,79 -348,-3 -108,-93 -101,-233 -100,-363 3,-308 0,-618 0,-927 0,-121 -12,-340 11,-451zm26 -7690c485,0 879,972 879,2172 0,1199 -394,2172 -879,2172 -485,0 -879,-973 -879,-2172 0,-1200 394,-2172 879,-2172z"/>
  </g>
 </g>
</svg>
